<svg width="130" height="34" viewBox="0 0 130 34" fill="none" xmlns="http://www.w3.org/2000/svg">
<path fill-rule="evenodd" clip-rule="evenodd" d="M0.940986 3.54425C0.800293 4.06932 0.800293 4.7093 0.800293 5.98927V28.0108C0.800293 29.2907 0.800293 29.9307 0.940986 30.4558C1.32279 31.8807 2.43576 32.9937 3.86065 33.3755C4.38573 33.5161 5.02571 33.5161 6.30567 33.5161H17.3164C24.7142 33.5161 30.976 28.6524 33.0785 21.9482C30.4622 21.8137 28.3822 19.6498 28.3822 17C28.3822 14.3503 30.4622 12.1863 33.0785 12.0518C30.976 5.34761 24.7142 0.483887 17.3164 0.483887H6.30567C5.02571 0.483887 4.38573 0.483887 3.86065 0.62458C2.43576 1.00638 1.32279 2.11935 0.940986 3.54425ZM15.4171 23.1936C18.8377 23.1936 21.6106 20.4206 21.6106 17C21.6106 13.5794 18.8377 10.8065 15.4171 10.8065C11.9965 10.8065 9.22352 13.5794 9.22352 17C9.22352 20.4206 11.9965 23.1936 15.4171 23.1936ZM11.2818 9.91376C11.9111 9.54425 12.1216 8.73458 11.7521 8.10533C11.3826 7.47607 10.5729 7.2655 9.94368 7.63501C9.31443 8.00452 9.10386 8.81418 9.47337 9.44344C9.84288 10.0727 10.6525 10.2833 11.2818 9.91376ZM11.2633 26.1091C11.8925 25.7396 12.1031 24.9299 11.7336 24.3006C11.3641 23.6714 10.5544 23.4608 9.92514 23.8303C9.29588 24.1998 9.08531 25.0095 9.45482 25.6388C9.82433 26.268 10.634 26.4786 11.2633 26.1091ZM25.8689 16.0002C26.2384 16.6294 26.0278 17.4391 25.3986 17.8086C24.7693 18.1781 23.9597 17.9675 23.5902 17.3383C23.2206 16.709 23.4312 15.8993 24.0605 15.5298C24.6897 15.1603 25.4994 15.3709 25.8689 16.0002ZM33.3784 21.129C35.6588 21.129 37.5074 19.2804 37.5074 17C37.5074 14.7196 35.6588 12.871 33.3784 12.871C31.098 12.871 29.2494 14.7196 29.2494 17C29.2494 19.2804 31.098 21.129 33.3784 21.129Z" fill="#25B679"/>
<path fill-rule="evenodd" clip-rule="evenodd" d="M76.1484 2.82764V21.0774H72.7702V2.82764H76.1484ZM57.6112 15.7775C58.0518 14.6841 58.2721 13.4887 58.2721 12.1912C58.2721 10.9019 58.0518 9.71466 57.6112 8.62939C57.1787 7.54411 56.5626 6.60979 55.7629 5.82643C54.9714 5.03491 54.0167 4.41883 52.8988 3.97819C51.7809 3.53755 50.5405 3.31724 49.1778 3.31724H42.3479V21.0774H49.1778C50.5405 21.0774 51.7809 20.8571 52.8988 20.4165C54.0167 19.9758 54.9714 19.3638 55.7629 18.5805C56.5626 17.7971 57.1787 16.8628 57.6112 15.7775ZM54.135 9.68202C54.3798 10.4246 54.5022 11.261 54.5022 12.1912C54.5022 13.1296 54.3798 13.9701 54.135 14.7127C53.8902 15.4552 53.5393 16.0876 53.0824 16.6099C52.6254 17.1239 52.0665 17.5197 51.4055 17.7971C50.7527 18.0664 50.0101 18.201 49.1778 18.201H46.0444V6.19363H49.1778C50.0101 6.19363 50.7527 6.33235 51.4055 6.60979C52.0665 6.88723 52.6254 7.28299 53.0824 7.79707C53.5393 8.31115 53.8902 8.93947 54.135 9.68202ZM62.3976 8.71507C61.5 9.04147 60.6799 9.53922 59.9373 10.2083L60.5371 11.2855C60.6432 11.4487 60.7737 11.5915 60.9288 11.7139C61.092 11.8281 61.2919 11.8852 61.5285 11.8852C61.7978 11.8852 62.0345 11.8322 62.2385 11.7261C62.4425 11.6119 62.6587 11.4935 62.8872 11.3711C63.1238 11.2406 63.3972 11.1223 63.7073 11.0162C64.0173 10.9019 64.4049 10.8448 64.8701 10.8448C65.4984 10.8448 65.9798 11.0325 66.3144 11.4079C66.6489 11.7751 66.8162 12.3544 66.8162 13.1459V13.7947C65.3719 13.8273 64.1683 13.9701 63.2054 14.2231C62.2507 14.4679 61.4837 14.782 60.9043 15.1655C60.3331 15.5409 59.9292 15.9611 59.6925 16.4263C59.4559 16.8914 59.3376 17.3565 59.3376 17.8216C59.3376 18.3846 59.4273 18.8824 59.6069 19.3149C59.7864 19.7474 60.0393 20.1105 60.3657 20.4042C60.7003 20.6898 61.0961 20.9061 61.553 21.053C62.01 21.1998 62.5159 21.2733 63.0708 21.2733C63.5196 21.2733 63.9235 21.2366 64.2825 21.1631C64.6497 21.0897 64.9925 20.9836 65.3107 20.8449C65.6289 20.698 65.9349 20.5185 66.2287 20.3063C66.5306 20.0942 66.8407 19.8494 67.1589 19.5719L67.4282 20.3798C67.5343 20.6654 67.6689 20.853 67.8321 20.9428C68.0035 21.0326 68.2483 21.0774 68.5665 21.0774H70.1088V13.1459C70.1088 12.4279 69.9986 11.7669 69.7783 11.1631C69.558 10.5592 69.2397 10.0411 68.8236 9.60858C68.4156 9.16794 67.9137 8.82523 67.3181 8.58043C66.7305 8.33563 66.0614 8.21323 65.3107 8.21323C64.2662 8.21323 63.2952 8.38051 62.3976 8.71507ZM64.7037 18.7912C63.4332 19.2536 62.169 18.9848 61.88 18.1907C61.591 17.3967 62.3866 16.3782 63.6571 15.9158C64.9275 15.4533 66.1917 15.7222 66.4807 16.5162C66.7697 17.3103 65.9741 18.3288 64.7037 18.7912ZM81.1401 8.71507C80.2425 9.04147 79.4224 9.53922 78.6798 10.2083L79.2796 11.2855C79.3857 11.4487 79.5162 11.5915 79.6713 11.7139C79.8345 11.8281 80.0344 11.8852 80.271 11.8852C80.5403 11.8852 80.7769 11.8322 80.9809 11.7261C81.1849 11.6119 81.4012 11.4935 81.6297 11.3711C81.8663 11.2406 82.1397 11.1223 82.4497 11.0162C82.7598 10.9019 83.1474 10.8448 83.6125 10.8448C84.2409 10.8448 84.7223 11.0325 85.0569 11.4079C85.3914 11.7751 85.5587 12.3544 85.5587 13.1459V13.7947C84.1144 13.8273 82.9108 13.9701 81.9479 14.2231C80.9932 14.4679 80.2261 14.782 79.6468 15.1655C79.0756 15.5409 78.6717 15.9611 78.435 16.4263C78.1984 16.8914 78.0801 17.3565 78.0801 17.8216C78.0801 18.3846 78.1698 18.8824 78.3493 19.3149C78.5289 19.7474 78.7818 20.1105 79.1082 20.4042C79.4428 20.6898 79.8385 20.9061 80.2955 21.053C80.7525 21.1998 81.2584 21.2733 81.8133 21.2733C82.2621 21.2733 82.666 21.2366 83.025 21.1631C83.3922 21.0897 83.7349 20.9836 84.0532 20.8449C84.3714 20.698 84.6774 20.5185 84.9712 20.3063C85.2731 20.0942 85.5832 19.8494 85.9014 19.5719L86.1707 20.3798C86.2768 20.6654 86.4114 20.853 86.5746 20.9428C86.746 21.0326 86.9908 21.0774 87.309 21.0774H88.8512V13.1459C88.8512 12.4279 88.7411 11.7669 88.5208 11.1631C88.3004 10.5592 87.9822 10.0411 87.5661 9.60858C87.1581 9.16794 86.6562 8.82523 86.0605 8.58043C85.473 8.33563 84.8039 8.21323 84.0532 8.21323C83.0087 8.21323 82.0377 8.38051 81.1401 8.71507ZM80.6378 18.1921C80.9268 18.9862 82.191 19.255 83.4614 18.7926C84.7319 18.3302 85.5275 17.3116 85.2385 16.5176C84.9495 15.7236 83.6853 15.4547 82.4149 15.9171C81.1444 16.3795 80.3488 17.3981 80.6378 18.1921ZM102.663 2.82764V21.0774H100.583C100.15 21.0774 99.8726 20.8816 99.7502 20.4899L99.4687 19.3883C99.2157 19.6658 98.9464 19.9187 98.6608 20.1472C98.3834 20.3757 98.0815 20.5756 97.7551 20.747C97.4287 20.9102 97.0778 21.0366 96.7024 21.1264C96.3271 21.2162 95.9191 21.261 95.4784 21.261C94.8012 21.261 94.181 21.1182 93.618 20.8326C93.0549 20.547 92.5653 20.1309 92.1492 19.5842C91.7412 19.0293 91.4229 18.352 91.1944 17.5523C90.966 16.7527 90.8517 15.8387 90.8517 14.8106C90.8517 13.8722 90.9782 12.9991 91.2312 12.1912C91.4923 11.3834 91.8595 10.6857 92.3328 10.0982C92.806 9.51066 93.3772 9.04963 94.0464 8.71507C94.7155 8.38051 95.458 8.21323 96.274 8.21323C96.9595 8.21323 97.5348 8.31523 97.9999 8.51923C98.4732 8.72323 98.9016 9.00067 99.2851 9.35154V2.82764H102.663ZM107.652 8.71507C106.754 9.04147 105.934 9.53922 105.192 10.2083L105.792 11.2855C105.898 11.4487 106.028 11.5915 106.183 11.7139C106.346 11.8281 106.546 11.8852 106.783 11.8852C107.052 11.8852 107.289 11.8322 107.493 11.7261C107.697 11.6119 107.913 11.4935 108.142 11.3711C108.378 11.2406 108.652 11.1223 108.962 11.0162C109.272 10.9019 109.659 10.8448 110.125 10.8448C110.753 10.8448 111.234 11.0325 111.569 11.4079C111.903 11.7751 112.071 12.3544 112.071 13.1459V13.7947C110.626 13.8273 109.423 13.9701 108.46 14.2231C107.505 14.4679 106.738 14.782 106.159 15.1655C105.588 15.5409 105.184 15.9611 104.947 16.4263C104.71 16.8914 104.592 17.3565 104.592 17.8216C104.592 18.3846 104.682 18.8824 104.861 19.3149C105.041 19.7474 105.294 20.1105 105.62 20.4042C105.955 20.6898 106.351 20.9061 106.808 21.053C107.264 21.1998 107.77 21.2733 108.325 21.2733C108.774 21.2733 109.178 21.2366 109.537 21.1631C109.904 21.0897 110.247 20.9836 110.565 20.8449C110.883 20.698 111.189 20.5185 111.483 20.3063C111.785 20.0942 112.095 19.8494 112.413 19.5719L112.683 20.3798C112.789 20.6654 112.923 20.853 113.087 20.9428C113.258 21.0326 113.503 21.0774 113.821 21.0774H115.363V13.1459C115.363 12.4279 115.253 11.7669 115.033 11.1631C114.812 10.5592 114.494 10.0411 114.078 9.60858C113.67 9.16794 113.168 8.82523 112.573 8.58043C111.985 8.33563 111.316 8.21323 110.565 8.21323C109.521 8.21323 108.55 8.38051 107.652 8.71507ZM107.137 18.1921C107.426 18.9862 108.691 19.255 109.961 18.7926C111.231 18.3302 112.027 17.3116 111.738 16.5176C111.449 15.7236 110.185 15.4547 108.914 15.9171C107.644 16.3795 106.848 17.3981 107.137 18.1921ZM121.134 9.92682C121.387 9.68202 121.648 9.45762 121.917 9.25363C122.194 9.04963 122.484 8.87419 122.786 8.72731C123.096 8.58043 123.427 8.46619 123.777 8.38459C124.137 8.30299 124.524 8.26219 124.94 8.26219C125.626 8.26219 126.234 8.38051 126.764 8.61715C127.294 8.85379 127.739 9.18427 128.098 9.60858C128.465 10.0329 128.739 10.5388 128.918 11.1263C129.106 11.7139 129.2 12.3585 129.2 13.0603V21.0774H125.834V13.0603C125.834 12.3585 125.671 11.8159 125.344 11.4323C125.018 11.0407 124.536 10.8448 123.9 10.8448C123.427 10.8448 122.982 10.9468 122.566 11.1508C122.15 11.3548 121.754 11.6404 121.378 12.0076V21.0774H118V8.45803H120.081C120.505 8.45803 120.787 8.65387 120.926 9.04555L121.134 9.92682ZM96.2623 18.0368C97.7494 18.0368 98.9551 16.5297 98.9551 14.6708C98.9551 12.8118 97.7494 11.3048 96.2623 11.3048C94.7751 11.3048 93.5695 12.8118 93.5695 14.6708C93.5695 16.5297 94.7751 18.0368 96.2623 18.0368Z" fill="#25B679"/>
<path fill-rule="evenodd" clip-rule="evenodd" d="M84.9216 26.8336C84.9866 26.7752 85.054 26.7225 85.1235 26.6754C85.1953 26.626 85.2705 26.5845 85.349 26.5508C85.4298 26.5149 85.5151 26.488 85.6049 26.47C85.6969 26.4499 85.7956 26.4398 85.9011 26.4398C86.0896 26.4398 86.2567 26.4723 86.4026 26.5374C86.5485 26.6024 86.6708 26.6933 86.7695 26.81C86.8705 26.9267 86.9457 27.0658 86.995 27.2274C87.0466 27.389 87.0724 27.5662 87.0724 27.7592V29.9639H86.1468V27.7592C86.1468 27.5662 86.1019 27.417 86.0121 27.3115C85.9224 27.2038 85.79 27.15 85.615 27.15C85.4848 27.15 85.3625 27.178 85.2481 27.2341C85.1336 27.2902 85.0248 27.3688 84.9216 27.4697V29.9639H83.9925V24.9453H84.9216V26.8336ZM46.5453 28.5065C46.6665 28.2058 46.7271 27.877 46.7271 27.5202C46.7271 27.1657 46.6665 26.8392 46.5453 26.5407C46.4264 26.2423 46.2569 25.9853 46.037 25.7699C45.8194 25.5523 45.5568 25.3828 45.2494 25.2617C44.942 25.1405 44.6009 25.0799 44.2261 25.0799H42.3479V29.9639H44.2261C44.6009 29.9639 44.942 29.9034 45.2494 29.7822C45.5568 29.661 45.8194 29.4927 46.037 29.2773C46.2569 29.0619 46.4264 28.8049 46.5453 28.5065ZM45.5894 26.8302C45.6567 27.0344 45.6903 27.2644 45.6903 27.5202C45.6903 27.7783 45.6567 28.0094 45.5894 28.2136C45.522 28.4178 45.4255 28.5917 45.2999 28.7354C45.1742 28.8767 45.0205 28.9856 44.8387 29.0619C44.6592 29.1359 44.455 29.1729 44.2261 29.1729H43.3644V25.8709H44.2261C44.455 25.8709 44.6592 25.909 44.8387 25.9853C45.0205 26.0616 45.1742 26.1705 45.2999 26.3118C45.4255 26.4532 45.522 26.626 45.5894 26.8302ZM47.8616 26.5643C47.6147 26.6541 47.3892 26.7909 47.185 26.9749L47.3499 27.2712C47.3791 27.316 47.415 27.3553 47.4576 27.389C47.5025 27.4204 47.5575 27.4361 47.6226 27.4361C47.6966 27.4361 47.7617 27.4215 47.8178 27.3923C47.8739 27.3609 47.9334 27.3284 47.9962 27.2947C48.0613 27.2588 48.1365 27.2263 48.2217 27.1971C48.307 27.1657 48.4136 27.15 48.5415 27.15C48.7143 27.15 48.8467 27.2016 48.9387 27.3048C49.0307 27.4058 49.0767 27.5651 49.0767 27.7828V27.9612C48.6795 27.9702 48.3485 28.0094 48.0837 28.079C47.8212 28.1463 47.6102 28.2327 47.4509 28.3382C47.2938 28.4414 47.1828 28.557 47.1177 28.6849C47.0526 28.8128 47.0201 28.9407 47.0201 29.0686C47.0201 29.2234 47.0447 29.3603 47.0941 29.4792C47.1435 29.5982 47.213 29.698 47.3028 29.7788C47.3948 29.8574 47.5036 29.9168 47.6293 29.9572C47.755 29.9976 47.8941 30.0178 48.0467 30.0178C48.1701 30.0178 48.2812 30.0077 48.3799 29.9875C48.4809 29.9673 48.5752 29.9381 48.6627 29.9C48.7502 29.8596 48.8343 29.8102 48.9151 29.7519C48.9981 29.6935 49.0834 29.6262 49.1709 29.5499L49.245 29.7721C49.2742 29.8506 49.3112 29.9022 49.3561 29.9269C49.4032 29.9516 49.4705 29.9639 49.558 29.9639H49.9821V27.7828C49.9821 27.5853 49.9518 27.4035 49.8913 27.2375C49.8307 27.0714 49.7432 26.9289 49.6287 26.81C49.5165 26.6888 49.3785 26.5946 49.2147 26.5273C49.0531 26.4599 48.8691 26.4263 48.6627 26.4263C48.3754 26.4263 48.1084 26.4723 47.8616 26.5643ZM48.1335 28.5348C47.7944 28.6582 47.5861 28.9416 47.6684 29.1677C47.7507 29.3938 48.0924 29.4771 48.4316 29.3536C48.7708 29.2302 48.979 28.9468 48.8967 28.7207C48.8144 28.4946 48.4727 28.4113 48.1335 28.5348ZM52.8649 27.2072C52.8402 27.2453 52.8144 27.2734 52.7875 27.2913C52.7628 27.3071 52.728 27.3149 52.6831 27.3149C52.6383 27.3149 52.5923 27.3037 52.5451 27.2813C52.498 27.2588 52.4453 27.2352 52.3869 27.2106C52.3286 27.1836 52.2613 27.159 52.185 27.1365C52.1109 27.1141 52.0245 27.1029 51.9258 27.1029C51.7754 27.1029 51.6588 27.1343 51.5757 27.1971C51.4927 27.2577 51.4512 27.3385 51.4512 27.4395C51.4512 27.509 51.4747 27.5674 51.5219 27.6145C51.569 27.6616 51.6307 27.7031 51.707 27.739C51.7855 27.7727 51.8742 27.8052 51.9729 27.8366C52.0717 27.8658 52.1726 27.8983 52.2759 27.9343C52.3813 27.9702 52.4834 28.0117 52.5822 28.0588C52.6809 28.1059 52.7684 28.1654 52.8447 28.2372C52.9233 28.3068 52.9861 28.392 53.0332 28.493C53.0803 28.5917 53.1039 28.7118 53.1039 28.8532C53.1039 29.0215 53.0725 29.1774 53.0096 29.321C52.9491 29.4624 52.8593 29.5847 52.7404 29.6879C52.6214 29.7912 52.4733 29.8719 52.2961 29.9303C52.1188 29.9886 51.9146 30.0178 51.6834 30.0178C51.5645 30.0178 51.4467 30.0066 51.33 29.9841C51.2133 29.9639 51.1022 29.9348 50.9968 29.8966C50.8913 29.8562 50.7926 29.8102 50.7006 29.7586C50.6086 29.707 50.5289 29.6509 50.4616 29.5903L50.677 29.2436C50.7017 29.2032 50.732 29.1718 50.7679 29.1494C50.806 29.1269 50.8543 29.1157 50.9126 29.1157C50.9687 29.1157 51.0203 29.1303 51.0675 29.1595C51.1146 29.1864 51.1673 29.2167 51.2257 29.2504C51.284 29.2818 51.3525 29.3121 51.431 29.3412C51.5118 29.3682 51.6116 29.3816 51.7306 29.3816C51.8203 29.3816 51.8977 29.3715 51.9628 29.3513C52.0279 29.3311 52.0806 29.3042 52.121 29.2706C52.1614 29.2346 52.1906 29.1954 52.2085 29.1527C52.2287 29.1079 52.2388 29.0619 52.2388 29.0147C52.2388 28.9384 52.2141 28.8767 52.1648 28.8296C52.1177 28.7802 52.0548 28.7376 51.9763 28.7017C51.9 28.6658 51.8113 28.6333 51.7104 28.6041C51.6094 28.5749 51.5062 28.5424 51.4007 28.5065C51.2975 28.4706 51.1954 28.4279 51.0944 28.3786C50.9957 28.3292 50.907 28.2675 50.8285 28.1934C50.7522 28.1171 50.6894 28.024 50.64 27.9141C50.5929 27.8041 50.5693 27.6706 50.5693 27.5135C50.5693 27.3699 50.5973 27.2341 50.6534 27.1062C50.7095 26.9761 50.7937 26.8616 50.9059 26.7629C51.0181 26.6642 51.1572 26.5856 51.3233 26.5273C51.4916 26.4689 51.6857 26.4398 51.9056 26.4398C52.1524 26.4398 52.3768 26.4801 52.5788 26.5609C52.7808 26.6417 52.9468 26.7472 53.077 26.8773L52.8649 27.2072ZM54.4663 29.9505C54.5875 29.9954 54.7266 30.0178 54.8837 30.0178C55.0565 30.0178 55.2237 29.992 55.3852 29.9404C55.5468 29.8888 55.6916 29.8125 55.8195 29.7115L55.5401 29.2672C55.5221 29.238 55.5042 29.2178 55.4862 29.2066C55.4683 29.1931 55.4458 29.1864 55.4189 29.1864C55.3987 29.1864 55.3785 29.192 55.3583 29.2032C55.3404 29.2122 55.3202 29.2234 55.2977 29.2369C55.2753 29.2481 55.2484 29.2593 55.2169 29.2706C55.1855 29.2795 55.1474 29.284 55.1025 29.284C55.0172 29.284 54.951 29.256 54.9039 29.1999C54.859 29.1438 54.8366 29.0675 54.8366 28.971V27.1601H55.7319V26.5138H54.8366V25.4569H54.3519C54.2397 25.4569 54.1712 25.5074 54.1466 25.6084L53.9581 26.5071L53.4027 26.6081V26.9716C53.4027 27.0344 53.4195 27.0815 53.4532 27.113C53.4891 27.1444 53.5317 27.1601 53.5811 27.1601H53.9076V29.0316C53.9076 29.1842 53.9289 29.321 53.9715 29.4422C54.0142 29.5634 54.077 29.6666 54.16 29.7519C54.2431 29.8372 54.3452 29.9034 54.4663 29.9505ZM59.2759 26.4936V29.9639H58.7036C58.5847 29.9639 58.5084 29.9101 58.4748 29.8024L58.4142 29.56C58.3446 29.6273 58.2728 29.6891 58.1987 29.7452C58.1247 29.8013 58.045 29.8495 57.9598 29.8899C57.8767 29.9303 57.7859 29.9617 57.6871 29.9841C57.5906 30.0066 57.4852 30.0178 57.3707 30.0178C57.1822 30.0178 57.0139 29.9853 56.8658 29.9202C56.72 29.8551 56.5977 29.7642 56.4989 29.6475C56.4002 29.5309 56.325 29.3917 56.2734 29.2302C56.2218 29.0686 56.196 28.8913 56.196 28.6983V26.4936H57.125V28.6983C57.125 28.8913 57.1688 29.0417 57.2563 29.1494C57.346 29.2548 57.4784 29.3076 57.6535 29.3076C57.7836 29.3076 57.9059 29.2795 58.0204 29.2234C58.1348 29.1651 58.2436 29.0865 58.3469 28.9878V26.4936H59.2759ZM61.2948 26.598C61.1512 26.7124 61.0244 26.8684 60.9145 27.0658L60.864 26.7191C60.8483 26.6361 60.8225 26.5778 60.7866 26.5441C60.7507 26.5104 60.6856 26.4936 60.5913 26.4936H60.0427V29.9639H60.9717V27.84C61.0076 27.757 61.0458 27.6829 61.0861 27.6179C61.1288 27.5528 61.1759 27.4978 61.2275 27.4529C61.2791 27.408 61.3375 27.3733 61.4025 27.3486C61.4699 27.3239 61.5462 27.3115 61.6314 27.3115C61.6898 27.3115 61.7526 27.3172 61.8199 27.3284C61.8873 27.3374 61.9389 27.3418 61.9748 27.3418C62.0152 27.3418 62.0466 27.334 62.069 27.3183C62.0937 27.3003 62.1117 27.2689 62.1229 27.224L62.1835 26.5374C62.0847 26.4633 61.9568 26.4263 61.7997 26.4263C61.6068 26.4263 61.4385 26.4835 61.2948 26.598ZM65.7814 29.9639H64.8894C64.8221 29.9639 64.7671 29.9471 64.7245 29.9135C64.6841 29.8798 64.6515 29.8405 64.6269 29.7956L63.9436 28.6546C63.9234 28.7309 63.8942 28.7982 63.856 28.8565L63.2704 29.7956C63.2434 29.8383 63.2098 29.8776 63.1694 29.9135C63.1312 29.9471 63.0819 29.9639 63.0213 29.9639H62.1932L63.3713 28.1732L62.2404 26.4936H63.1324C63.1997 26.4936 63.249 26.5026 63.2805 26.5205C63.3119 26.5385 63.3399 26.5677 63.3646 26.6081L64.0445 27.7087C64.0558 27.6706 64.0703 27.6324 64.0883 27.5943C64.1063 27.5539 64.1276 27.5146 64.1523 27.4765L64.674 26.6249C64.7278 26.5374 64.7974 26.4936 64.8827 26.4936H65.7343L64.6033 28.1328L65.7814 29.9639ZM68.2809 26.5643C68.0677 26.4813 67.831 26.4398 67.5707 26.4398C67.3081 26.4398 67.0692 26.4813 66.8537 26.5643C66.6405 26.6473 66.4577 26.7663 66.3051 26.9211C66.1525 27.0737 66.0335 27.2599 65.9483 27.4798C65.8652 27.6998 65.8237 27.9477 65.8237 28.2237C65.8237 28.4997 65.8652 28.7488 65.9483 28.971C66.0335 29.1909 66.1525 29.3783 66.3051 29.5331C66.4577 29.6879 66.6405 29.8069 66.8537 29.8899C67.0692 29.9729 67.3081 30.0144 67.5707 30.0144C67.831 30.0144 68.0677 29.9729 68.2809 29.8899C68.4941 29.8069 68.677 29.6879 68.8296 29.5331C68.9822 29.3783 69.1 29.1909 69.183 28.971C69.266 28.7488 69.3075 28.4997 69.3075 28.2237C69.3075 27.9477 69.266 27.6998 69.183 27.4798C69.1 27.2599 68.9822 27.0737 68.8296 26.9211C68.677 26.7663 68.4941 26.6473 68.2809 26.5643ZM68.1597 29.045C68.0318 29.2268 67.8355 29.3177 67.5707 29.3177C67.2992 29.3177 67.0994 29.2268 66.9715 29.045C66.8436 28.861 66.7797 28.5884 66.7797 28.2271C66.7797 27.8681 66.8436 27.5977 66.9715 27.4159C67.0994 27.2319 67.2992 27.1399 67.5707 27.1399C67.8355 27.1399 68.0318 27.2319 68.1597 27.4159C68.2876 27.5977 68.3516 27.8681 68.3516 28.2271C68.3516 28.5884 68.2876 28.861 68.1597 29.045ZM70.7526 26.8975C70.8221 26.8302 70.8939 26.7685 70.968 26.7124C71.0443 26.6563 71.1239 26.6081 71.207 26.5677C71.2922 26.5273 71.3831 26.4959 71.4796 26.4734C71.5783 26.451 71.6849 26.4398 71.7994 26.4398C71.9879 26.4398 72.1551 26.4723 72.3009 26.5374C72.4468 26.6024 72.5691 26.6933 72.6678 26.81C72.7688 26.9267 72.844 27.0658 72.8933 27.2274C72.9449 27.389 72.9707 27.5662 72.9707 27.7592V29.9639H72.0451V27.7592C72.0451 27.5662 72.0002 27.417 71.9105 27.3115C71.8207 27.2038 71.6883 27.15 71.5133 27.15C71.3831 27.15 71.2608 27.178 71.1464 27.2341C71.0319 27.2902 70.9231 27.3688 70.8199 27.4697V29.9639H69.8909V26.4936H70.4631C70.5798 26.4936 70.6572 26.5475 70.6953 26.6552L70.7526 26.8975ZM76.8038 26.948V26.6081H75.7873C75.5607 26.4914 75.2992 26.433 75.003 26.433C74.8033 26.433 74.6182 26.4588 74.4476 26.5104C74.2771 26.5621 74.129 26.6372 74.0033 26.736C73.8777 26.8325 73.7789 26.9503 73.7071 27.0894C73.6375 27.2285 73.6028 27.3845 73.6028 27.5573C73.6028 27.7682 73.6544 27.9533 73.7576 28.1127C73.8608 28.2697 74.0011 28.3954 74.1783 28.4896C74.0213 28.5659 73.9046 28.6613 73.8283 28.7758C73.7542 28.8902 73.7172 28.999 73.7172 29.1023C73.7172 29.2302 73.743 29.3345 73.7946 29.4153C73.8485 29.4938 73.9192 29.5578 74.0067 29.6072C73.8406 29.6722 73.7105 29.7586 73.6162 29.8663C73.522 29.974 73.4749 30.1053 73.4749 30.2602C73.4749 30.3791 73.5063 30.4935 73.5691 30.6035C73.6319 30.7134 73.7273 30.8099 73.8552 30.893C73.9854 30.9782 74.1481 31.0456 74.3433 31.0949C74.5408 31.1465 74.773 31.1723 75.04 31.1723C75.3093 31.1723 75.5494 31.1376 75.7604 31.068C75.9713 30.9984 76.1486 30.9064 76.2922 30.792C76.4381 30.6775 76.5491 30.5474 76.6254 30.4015C76.7017 30.2557 76.7399 30.1053 76.7399 29.9505C76.7399 29.7844 76.7073 29.6487 76.6423 29.5432C76.5794 29.4377 76.4953 29.3536 76.3898 29.2907C76.2866 29.2257 76.1677 29.1797 76.033 29.1527C75.9006 29.1236 75.7649 29.1034 75.6257 29.0922C75.4888 29.0809 75.3531 29.0742 75.2184 29.072C75.086 29.0675 74.9671 29.0596 74.8616 29.0484C74.7584 29.0349 74.6743 29.0136 74.6092 28.9844C74.5464 28.9553 74.5149 28.9081 74.5149 28.8431C74.5149 28.7735 74.5621 28.7096 74.6563 28.6512C74.764 28.6714 74.8796 28.6815 75.003 28.6815C75.1982 28.6815 75.38 28.6557 75.5483 28.6041C75.7166 28.5502 75.8625 28.4751 75.9859 28.3786C76.1093 28.2798 76.2058 28.162 76.2754 28.0251C76.3472 27.886 76.3831 27.7301 76.3831 27.5573C76.3831 27.4316 76.364 27.3138 76.3259 27.2038L76.6086 27.1466C76.6782 27.1309 76.7275 27.1073 76.7567 27.0759C76.7881 27.0445 76.8038 27.0019 76.8038 26.948ZM75.4238 27.9544C75.334 28.0509 75.1938 28.0992 75.003 28.0992C74.8145 28.0992 74.6743 28.0509 74.5823 27.9544C74.4925 27.8557 74.4476 27.7312 74.4476 27.5808C74.4476 27.4215 74.4925 27.297 74.5823 27.2072C74.672 27.1152 74.8123 27.0692 75.003 27.0692C75.1938 27.0692 75.334 27.1152 75.4238 27.2072C75.5158 27.297 75.5618 27.4215 75.5618 27.5808C75.5618 27.7334 75.5158 27.858 75.4238 27.9544ZM75.8243 29.9572C75.8625 29.9954 75.8815 30.0447 75.8815 30.1053C75.8815 30.1659 75.867 30.222 75.8378 30.2736C75.8109 30.3252 75.7649 30.369 75.6998 30.4049C75.6347 30.443 75.5494 30.4722 75.444 30.4924C75.3385 30.5126 75.2095 30.5227 75.0569 30.5227C74.9088 30.5227 74.7854 30.5126 74.6866 30.4924C74.5879 30.4745 74.5082 30.4487 74.4476 30.415C74.387 30.3813 74.3433 30.3409 74.3164 30.2938C74.2917 30.2467 74.2793 30.1951 74.2793 30.139C74.2793 30.0582 74.304 29.9864 74.3534 29.9236C74.405 29.8585 74.4701 29.8024 74.5486 29.7553C74.6496 29.7665 74.7528 29.7743 74.8583 29.7788C74.9637 29.7833 75.0658 29.7889 75.1646 29.7956C75.2633 29.8001 75.3564 29.808 75.444 29.8192C75.5315 29.8282 75.6067 29.8439 75.6695 29.8663C75.7346 29.8888 75.7862 29.9191 75.8243 29.9572ZM77.2094 26.9749C77.4136 26.7909 77.6392 26.6541 77.886 26.5643C78.1328 26.4723 78.3999 26.4263 78.6871 26.4263C78.8936 26.4263 79.0776 26.4599 79.2391 26.5273C79.4029 26.5946 79.5409 26.6888 79.6531 26.81C79.7676 26.9289 79.8551 27.0714 79.9157 27.2375C79.9763 27.4035 80.0066 27.5853 80.0066 27.7828V29.9639H79.5825C79.4949 29.9639 79.4276 29.9516 79.3805 29.9269C79.3356 29.9022 79.2986 29.8506 79.2694 29.7721L79.1954 29.5499C79.1079 29.6262 79.0226 29.6935 78.9396 29.7519C78.8588 29.8102 78.7746 29.8596 78.6871 29.9C78.5996 29.9381 78.5053 29.9673 78.4044 29.9875C78.3056 30.0077 78.1945 30.0178 78.0711 30.0178C77.9185 30.0178 77.7794 29.9976 77.6537 29.9572C77.5281 29.9168 77.4192 29.8574 77.3272 29.7788C77.2375 29.698 77.1679 29.5982 77.1185 29.4792C77.0692 29.3603 77.0445 29.2234 77.0445 29.0686C77.0445 28.9407 77.077 28.8128 77.1421 28.6849C77.2072 28.557 77.3183 28.4414 77.4753 28.3382C77.6347 28.2327 77.8456 28.1463 78.1082 28.079C78.3729 28.0094 78.7039 27.9702 79.1011 27.9612V27.7828C79.1011 27.5651 79.0551 27.4058 78.9631 27.3048C78.8711 27.2016 78.7387 27.15 78.5659 27.15C78.438 27.15 78.3314 27.1657 78.2462 27.1971C78.1609 27.2263 78.0857 27.2588 78.0206 27.2947C77.9578 27.3284 77.8983 27.3609 77.8422 27.3923C77.7861 27.4215 77.7211 27.4361 77.647 27.4361C77.5819 27.4361 77.527 27.4204 77.4821 27.389C77.4394 27.3553 77.4035 27.316 77.3744 27.2712L77.2094 26.9749ZM77.6564 29.1677C77.5741 28.9416 77.7823 28.6582 78.1215 28.5348C78.4607 28.4113 78.8024 28.4946 78.8847 28.7207C78.967 28.9468 78.7587 29.2302 78.4195 29.3536C78.0804 29.4771 77.7387 29.3938 77.6564 29.1677ZM83.1687 27.3519C83.1956 27.3317 83.2226 27.3037 83.2495 27.2678L83.4919 26.9379C83.3325 26.7764 83.153 26.6529 82.9533 26.5677C82.7536 26.4824 82.5213 26.4398 82.2565 26.4398C81.9783 26.4398 81.7326 26.4858 81.5194 26.5778C81.3084 26.6675 81.1312 26.7921 80.9876 26.9514C80.8439 27.1107 80.7351 27.2992 80.661 27.5169C80.587 27.7345 80.55 27.9702 80.55 28.2237C80.55 28.5087 80.5915 28.7623 80.6745 28.9844C80.7598 29.2066 80.8742 29.394 81.0178 29.5466C81.1615 29.6992 81.3286 29.8158 81.5194 29.8966C81.7101 29.9752 81.9121 30.0144 82.1253 30.0144C82.2464 30.0144 82.3687 30.0055 82.4922 29.9875C82.6156 29.9718 82.7367 29.9426 82.8557 29.9C82.9769 29.8551 83.0935 29.7956 83.2057 29.7216C83.3179 29.6453 83.4234 29.5499 83.5221 29.4355L83.2562 29.0989C83.2158 29.045 83.1597 29.0181 83.0879 29.0181C83.0498 29.0181 83.015 29.026 82.9836 29.0417C82.9544 29.0551 82.9241 29.0731 82.8927 29.0955C82.8635 29.118 82.8321 29.1426 82.7985 29.1696C82.7648 29.1965 82.7244 29.2212 82.6773 29.2436C82.6324 29.2661 82.5785 29.2851 82.5157 29.3008C82.4551 29.3143 82.3822 29.321 82.2969 29.321C82.0501 29.321 81.8549 29.2268 81.7112 29.0383C81.5699 28.8498 81.4992 28.5783 81.4992 28.2237C81.4992 28.0554 81.5149 27.904 81.5463 27.7693C81.58 27.6347 81.6305 27.5202 81.6978 27.426C81.7651 27.3317 81.8492 27.2599 81.9502 27.2106C82.0535 27.159 82.1746 27.1331 82.3138 27.1331C82.4237 27.1331 82.5157 27.1466 82.5898 27.1735C82.6638 27.1982 82.7278 27.2263 82.7816 27.2577C82.8355 27.2869 82.8826 27.3149 82.923 27.3418C82.9656 27.3665 83.0094 27.3789 83.0543 27.3789C83.1036 27.3789 83.1418 27.3699 83.1687 27.3519ZM88.4113 26.5643C88.1645 26.6541 87.9389 26.7909 87.7347 26.9749L87.8997 27.2712C87.9289 27.316 87.9648 27.3553 88.0074 27.389C88.0523 27.4204 88.1072 27.4361 88.1723 27.4361C88.2464 27.4361 88.3115 27.4215 88.3676 27.3923C88.4237 27.3609 88.4831 27.3284 88.546 27.2947C88.611 27.2588 88.6862 27.2263 88.7715 27.1971C88.8567 27.1657 88.9633 27.15 89.0912 27.15C89.264 27.15 89.3964 27.2016 89.4884 27.3048C89.5804 27.4058 89.6264 27.5651 89.6264 27.7828V27.9612C89.2292 27.9702 88.8983 28.0094 88.6335 28.079C88.3709 28.1463 88.16 28.2327 88.0007 28.3382C87.8436 28.4414 87.7325 28.557 87.6674 28.6849C87.6023 28.8128 87.5698 28.9407 87.5698 29.0686C87.5698 29.2234 87.5945 29.3603 87.6439 29.4792C87.6932 29.5982 87.7628 29.698 87.8526 29.7788C87.9446 29.8574 88.0534 29.9168 88.1791 29.9572C88.3047 29.9976 88.4438 30.0178 88.5964 30.0178C88.7199 30.0178 88.8309 30.0077 88.9297 29.9875C89.0307 29.9673 89.1249 29.9381 89.2124 29.9C89.2999 29.8596 89.3841 29.8102 89.4649 29.7519C89.5479 29.6935 89.6332 29.6262 89.7207 29.5499L89.7947 29.7721C89.8239 29.8506 89.8609 29.9022 89.9058 29.9269C89.9529 29.9516 90.0203 29.9639 90.1078 29.9639H90.5319V27.7828C90.5319 27.5853 90.5016 27.4035 90.441 27.2375C90.3804 27.0714 90.2929 26.9289 90.1785 26.81C90.0663 26.6888 89.9283 26.5946 89.7644 26.5273C89.6029 26.4599 89.4189 26.4263 89.2124 26.4263C88.9252 26.4263 88.6581 26.4723 88.4113 26.5643ZM88.6479 28.5654C88.3087 28.6888 88.1005 28.9722 88.1828 29.1983C88.2651 29.4244 88.6067 29.5077 88.9459 29.3842C89.2851 29.2608 89.4933 28.9774 89.411 28.7513C89.3287 28.5251 88.9871 28.4419 88.6479 28.5654Z" fill="#25B679"/>
</svg>
