<svg width="38" height="34" viewBox="0 0 38 34" fill="none" xmlns="http://www.w3.org/2000/svg">
<path fill-rule="evenodd" clip-rule="evenodd" d="M0.940986 3.54425C0.800293 4.06932 0.800293 4.7093 0.800293 5.98927V28.0108C0.800293 29.2907 0.800293 29.9307 0.940986 30.4558C1.32279 31.8807 2.43576 32.9937 3.86065 33.3755C4.38573 33.5161 5.02571 33.5161 6.30567 33.5161H17.3164C24.7142 33.5161 30.976 28.6524 33.0785 21.9482C30.4622 21.8137 28.3822 19.6498 28.3822 17C28.3822 14.3503 30.4622 12.1863 33.0785 12.0518C30.976 5.34761 24.7142 0.483887 17.3164 0.483887H6.30567C5.02571 0.483887 4.38573 0.483887 3.86065 0.62458C2.43576 1.00638 1.32279 2.11935 0.940986 3.54425ZM15.4171 23.1936C18.8377 23.1936 21.6106 20.4206 21.6106 17C21.6106 13.5794 18.8377 10.8065 15.4171 10.8065C11.9965 10.8065 9.22352 13.5794 9.22352 17C9.22352 20.4206 11.9965 23.1936 15.4171 23.1936ZM11.2818 9.91376C11.9111 9.54425 12.1216 8.73458 11.7521 8.10533C11.3826 7.47607 10.5729 7.2655 9.94368 7.63501C9.31443 8.00452 9.10386 8.81418 9.47337 9.44344C9.84288 10.0727 10.6525 10.2833 11.2818 9.91376ZM11.2633 26.1091C11.8925 25.7396 12.1031 24.9299 11.7336 24.3006C11.3641 23.6714 10.5544 23.4608 9.92514 23.8303C9.29588 24.1998 9.08531 25.0095 9.45482 25.6388C9.82433 26.268 10.634 26.4786 11.2633 26.1091ZM25.8689 16.0002C26.2384 16.6294 26.0278 17.4391 25.3986 17.8086C24.7693 18.1781 23.9597 17.9675 23.5902 17.3383C23.2206 16.709 23.4312 15.8993 24.0605 15.5298C24.6897 15.1603 25.4994 15.3709 25.8689 16.0002ZM33.3784 21.129C35.6588 21.129 37.5074 19.2804 37.5074 17C37.5074 14.7196 35.6588 12.871 33.3784 12.871C31.098 12.871 29.2494 14.7196 29.2494 17C29.2494 19.2804 31.098 21.129 33.3784 21.129Z" fill="#25B679"/>
</svg>
