<svg width="100" height="100" viewBox="0 0 100 100" fill="none" xmlns="http://www.w3.org/2000/svg">
<rect width="100" height="100" rx="2" fill="white"/>
<path d="M5.67383 5.67371H9.21993V9.21981H5.67383V5.67371ZM9.21993 5.67371H12.766V9.21981H9.21993V5.67371ZM12.766 5.67371H16.3121V9.21981H12.766V5.67371ZM16.3121 5.67371H19.8582V9.21981H16.3121V5.67371ZM19.8582 5.67371H23.4043V9.21981H19.8582V5.67371ZM23.4043 5.67371H26.9504V9.21981H23.4043V5.67371ZM26.9504 5.67371H30.4965V9.21981H26.9504V5.67371ZM34.0426 5.67371H37.5887V9.21981H34.0426V5.67371ZM51.7731 5.67371H55.3192V9.21981H51.7731V5.67371ZM62.4114 5.67371H65.9575V9.21981H62.4114V5.67371ZM69.5036 5.67371H73.0497V9.21981H69.5036V5.67371ZM73.0497 5.67371H76.5958V9.21981H73.0497V5.67371ZM76.5958 5.67371H80.1419V9.21981H76.5958V5.67371ZM80.1419 5.67371H83.688V9.21981H80.1419V5.67371ZM83.688 5.67371H87.2341V9.21981H83.688V5.67371ZM87.2341 5.67371H90.7802V9.21981H87.2341V5.67371ZM90.7802 5.67371H94.3263V9.21981H90.7802V5.67371ZM5.67383 9.21981H9.21993V12.7659H5.67383V9.21981ZM26.9504 9.21981H30.4965V12.7659H26.9504V9.21981ZM34.0426 9.21981H37.5887V12.7659H34.0426V9.21981ZM41.1348 9.21981H44.6809V12.7659H41.1348V9.21981ZM44.6809 9.21981H48.227V12.7659H44.6809V9.21981ZM48.227 9.21981H51.7731V12.7659H48.227V9.21981ZM51.7731 9.21981H55.3192V12.7659H51.7731V9.21981ZM62.4114 9.21981H65.9575V12.7659H62.4114V9.21981ZM69.5036 9.21981H73.0497V12.7659H69.5036V9.21981ZM90.7802 9.21981H94.3263V12.7659H90.7802V9.21981ZM5.67383 12.7659H9.21993V16.312H5.67383V12.7659ZM12.766 12.7659H16.3121V16.312H12.766V12.7659ZM16.3121 12.7659H19.8582V16.312H16.3121V12.7659ZM19.8582 12.7659H23.4043V16.312H19.8582V12.7659ZM26.9504 12.7659H30.4965V16.312H26.9504V12.7659ZM37.5887 12.7659H41.1348V16.312H37.5887V12.7659ZM44.6809 12.7659H48.227V16.312H44.6809V12.7659ZM48.227 12.7659H51.7731V16.312H48.227V12.7659ZM58.8653 12.7659H62.4114V16.312H58.8653V12.7659ZM62.4114 12.7659H65.9575V16.312H62.4114V12.7659ZM69.5036 12.7659H73.0497V16.312H69.5036V12.7659ZM76.5958 12.7659H80.1419V16.312H76.5958V12.7659ZM80.1419 12.7659H83.688V16.312H80.1419V12.7659ZM83.688 12.7659H87.2341V16.312H83.688V12.7659ZM90.7802 12.7659H94.3263V16.312H90.7802V12.7659ZM5.67383 16.312H9.21993V19.8581H5.67383V16.312ZM12.766 16.312H16.3121V19.8581H12.766V16.312ZM16.3121 16.312H19.8582V19.8581H16.3121V16.312ZM19.8582 16.312H23.4043V19.8581H19.8582V16.312ZM26.9504 16.312H30.4965V19.8581H26.9504V16.312ZM37.5887 16.312H41.1348V19.8581H37.5887V16.312ZM41.1348 16.312H44.6809V19.8581H41.1348V16.312ZM44.6809 16.312H48.227V19.8581H44.6809V16.312ZM55.3192 16.312H58.8653V19.8581H55.3192V16.312ZM58.8653 16.312H62.4114V19.8581H58.8653V16.312ZM62.4114 16.312H65.9575V19.8581H62.4114V16.312ZM69.5036 16.312H73.0497V19.8581H69.5036V16.312ZM76.5958 16.312H80.1419V19.8581H76.5958V16.312ZM80.1419 16.312H83.688V19.8581H80.1419V16.312ZM83.688 16.312H87.2341V19.8581H83.688V16.312ZM90.7802 16.312H94.3263V19.8581H90.7802V16.312ZM5.67383 19.8581H9.21993V23.4042H5.67383V19.8581ZM12.766 19.8581H16.3121V23.4042H12.766V19.8581ZM16.3121 19.8581H19.8582V23.4042H16.3121V19.8581ZM19.8582 19.8581H23.4043V23.4042H19.8582V19.8581ZM26.9504 19.8581H30.4965V23.4042H26.9504V19.8581ZM41.1348 19.8581H44.6809V23.4042H41.1348V19.8581ZM51.7731 19.8581H55.3192V23.4042H51.7731V19.8581ZM62.4114 19.8581H65.9575V23.4042H62.4114V19.8581ZM69.5036 19.8581H73.0497V23.4042H69.5036V19.8581ZM76.5958 19.8581H80.1419V23.4042H76.5958V19.8581ZM80.1419 19.8581H83.688V23.4042H80.1419V19.8581ZM83.688 19.8581H87.2341V23.4042H83.688V19.8581ZM90.7802 19.8581H94.3263V23.4042H90.7802V19.8581ZM5.67383 23.4042H9.21993V26.9503H5.67383V23.4042ZM26.9504 23.4042H30.4965V26.9503H26.9504V23.4042ZM51.7731 23.4042H55.3192V26.9503H51.7731V23.4042ZM55.3192 23.4042H58.8653V26.9503H55.3192V23.4042ZM62.4114 23.4042H65.9575V26.9503H62.4114V23.4042ZM69.5036 23.4042H73.0497V26.9503H69.5036V23.4042ZM90.7802 23.4042H94.3263V26.9503H90.7802V23.4042ZM5.67383 26.9503H9.21993V30.4964H5.67383V26.9503ZM9.21993 26.9503H12.766V30.4964H9.21993V26.9503ZM12.766 26.9503H16.3121V30.4964H12.766V26.9503ZM16.3121 26.9503H19.8582V30.4964H16.3121V26.9503ZM19.8582 26.9503H23.4043V30.4964H19.8582V26.9503ZM23.4043 26.9503H26.9504V30.4964H23.4043V26.9503ZM26.9504 26.9503H30.4965V30.4964H26.9504V26.9503ZM34.0426 26.9503H37.5887V30.4964H34.0426V26.9503ZM41.1348 26.9503H44.6809V30.4964H41.1348V26.9503ZM48.227 26.9503H51.7731V30.4964H48.227V26.9503ZM55.3192 26.9503H58.8653V30.4964H55.3192V26.9503ZM62.4114 26.9503H65.9575V30.4964H62.4114V26.9503ZM69.5036 26.9503H73.0497V30.4964H69.5036V26.9503ZM73.0497 26.9503H76.5958V30.4964H73.0497V26.9503ZM76.5958 26.9503H80.1419V30.4964H76.5958V26.9503ZM80.1419 26.9503H83.688V30.4964H80.1419V26.9503ZM83.688 26.9503H87.2341V30.4964H83.688V26.9503ZM87.2341 26.9503H90.7802V30.4964H87.2341V26.9503ZM90.7802 26.9503H94.3263V30.4964H90.7802V26.9503ZM44.6809 30.4964H48.227V34.0425H44.6809V30.4964ZM48.227 30.4964H51.7731V34.0425H48.227V30.4964ZM51.7731 30.4964H55.3192V34.0425H51.7731V30.4964ZM58.8653 30.4964H62.4114V34.0425H58.8653V30.4964ZM62.4114 30.4964H65.9575V34.0425H62.4114V30.4964ZM9.21993 34.0425H12.766V37.5886H9.21993V34.0425ZM26.9504 34.0425H30.4965V37.5886H26.9504V34.0425ZM30.4965 34.0425H34.0426V37.5886H30.4965V34.0425ZM34.0426 34.0425H37.5887V37.5886H34.0426V34.0425ZM48.227 34.0425H51.7731V37.5886H48.227V34.0425ZM55.3192 34.0425H58.8653V37.5886H55.3192V34.0425ZM65.9575 34.0425H69.5036V37.5886H65.9575V34.0425ZM87.2341 34.0425H90.7802V37.5886H87.2341V34.0425ZM90.7802 34.0425H94.3263V37.5886H90.7802V34.0425ZM5.67383 37.5886H9.21993V41.1347H5.67383V37.5886ZM16.3121 37.5886H19.8582V41.1347H16.3121V37.5886ZM23.4043 37.5886H26.9504V41.1347H23.4043V37.5886ZM30.4965 37.5886H34.0426V41.1347H30.4965V37.5886ZM34.0426 37.5886H37.5887V41.1347H34.0426V37.5886ZM41.1348 37.5886H44.6809V41.1347H41.1348V37.5886ZM48.227 37.5886H51.7731V41.1347H48.227V37.5886ZM55.3192 37.5886H58.8653V41.1347H55.3192V37.5886ZM58.8653 37.5886H62.4114V41.1347H58.8653V37.5886ZM73.0497 37.5886H76.5958V41.1347H73.0497V37.5886ZM76.5958 37.5886H80.1419V41.1347H76.5958V37.5886ZM80.1419 37.5886H83.688V41.1347H80.1419V37.5886ZM83.688 37.5886H87.2341V41.1347H83.688V37.5886ZM87.2341 37.5886H90.7802V41.1347H87.2341V37.5886ZM23.4043 41.1347H26.9504V44.6808H23.4043V41.1347ZM26.9504 41.1347H30.4965V44.6808H26.9504V41.1347ZM30.4965 41.1347H34.0426V44.6808H30.4965V41.1347ZM41.1348 41.1347H44.6809V44.6808H41.1348V41.1347ZM44.6809 41.1347H48.227V44.6808H44.6809V41.1347ZM48.227 41.1347H51.7731V44.6808H48.227V41.1347ZM58.8653 41.1347H62.4114V44.6808H58.8653V41.1347ZM62.4114 41.1347H65.9575V44.6808H62.4114V41.1347ZM76.5958 41.1347H80.1419V44.6808H76.5958V41.1347ZM80.1419 41.1347H83.688V44.6808H80.1419V41.1347ZM87.2341 41.1347H90.7802V44.6808H87.2341V41.1347ZM90.7802 41.1347H94.3263V44.6808H90.7802V41.1347ZM5.67383 44.6808H9.21993V48.2269H5.67383V44.6808ZM9.21993 44.6808H12.766V48.2269H9.21993V44.6808ZM16.3121 44.6808H19.8582V48.2269H16.3121V44.6808ZM30.4965 44.6808H34.0426V48.2269H30.4965V44.6808ZM37.5887 44.6808H41.1348V48.2269H37.5887V44.6808ZM41.1348 44.6808H44.6809V48.2269H41.1348V44.6808ZM44.6809 44.6808H48.227V48.2269H44.6809V44.6808ZM55.3192 44.6808H58.8653V48.2269H55.3192V44.6808ZM58.8653 44.6808H62.4114V48.2269H58.8653V44.6808ZM65.9575 44.6808H69.5036V48.2269H65.9575V44.6808ZM69.5036 44.6808H73.0497V48.2269H69.5036V44.6808ZM73.0497 44.6808H76.5958V48.2269H73.0497V44.6808ZM80.1419 44.6808H83.688V48.2269H80.1419V44.6808ZM90.7802 44.6808H94.3263V48.2269H90.7802V44.6808ZM9.21993 48.2269H12.766V51.773H9.21993V48.2269ZM19.8582 48.2269H23.4043V51.773H19.8582V48.2269ZM26.9504 48.2269H30.4965V51.773H26.9504V48.2269ZM34.0426 48.2269H37.5887V51.773H34.0426V48.2269ZM37.5887 48.2269H41.1348V51.773H37.5887V48.2269ZM48.227 48.2269H51.7731V51.773H48.227V48.2269ZM51.7731 48.2269H55.3192V51.773H51.7731V48.2269ZM55.3192 48.2269H58.8653V51.773H55.3192V48.2269ZM58.8653 48.2269H62.4114V51.773H58.8653V48.2269ZM62.4114 48.2269H65.9575V51.773H62.4114V48.2269ZM69.5036 48.2269H73.0497V51.773H69.5036V48.2269ZM73.0497 48.2269H76.5958V51.773H73.0497V48.2269ZM90.7802 48.2269H94.3263V51.773H90.7802V48.2269ZM5.67383 51.773H9.21993V55.3191H5.67383V51.773ZM16.3121 51.773H19.8582V55.3191H16.3121V51.773ZM19.8582 51.773H23.4043V55.3191H19.8582V51.773ZM23.4043 51.773H26.9504V55.3191H23.4043V51.773ZM30.4965 51.773H34.0426V55.3191H30.4965V51.773ZM37.5887 51.773H41.1348V55.3191H37.5887V51.773ZM44.6809 51.773H48.227V55.3191H44.6809V51.773ZM55.3192 51.773H58.8653V55.3191H55.3192V51.773ZM58.8653 51.773H62.4114V55.3191H58.8653V51.773ZM62.4114 51.773H65.9575V55.3191H62.4114V51.773ZM73.0497 51.773H76.5958V55.3191H73.0497V51.773ZM87.2341 51.773H90.7802V55.3191H87.2341V51.773ZM5.67383 55.3191H9.21993V58.8652H5.67383V55.3191ZM12.766 55.3191H16.3121V58.8652H12.766V55.3191ZM16.3121 55.3191H19.8582V58.8652H16.3121V55.3191ZM19.8582 55.3191H23.4043V58.8652H19.8582V55.3191ZM23.4043 55.3191H26.9504V58.8652H23.4043V55.3191ZM26.9504 55.3191H30.4965V58.8652H26.9504V55.3191ZM30.4965 55.3191H34.0426V58.8652H30.4965V55.3191ZM37.5887 55.3191H41.1348V58.8652H37.5887V55.3191ZM51.7731 55.3191H55.3192V58.8652H51.7731V55.3191ZM55.3192 55.3191H58.8653V58.8652H55.3192V55.3191ZM58.8653 55.3191H62.4114V58.8652H58.8653V55.3191ZM65.9575 55.3191H69.5036V58.8652H65.9575V55.3191ZM69.5036 55.3191H73.0497V58.8652H69.5036V55.3191ZM73.0497 55.3191H76.5958V58.8652H73.0497V55.3191ZM76.5958 55.3191H80.1419V58.8652H76.5958V55.3191ZM80.1419 55.3191H83.688V58.8652H80.1419V55.3191ZM87.2341 55.3191H90.7802V58.8652H87.2341V55.3191ZM90.7802 55.3191H94.3263V58.8652H90.7802V55.3191ZM5.67383 58.8652H9.21993V62.4113H5.67383V58.8652ZM12.766 58.8652H16.3121V62.4113H12.766V58.8652ZM16.3121 58.8652H19.8582V62.4113H16.3121V58.8652ZM30.4965 58.8652H34.0426V62.4113H30.4965V58.8652ZM37.5887 58.8652H41.1348V62.4113H37.5887V58.8652ZM44.6809 58.8652H48.227V62.4113H44.6809V58.8652ZM48.227 58.8652H51.7731V62.4113H48.227V58.8652ZM58.8653 58.8652H62.4114V62.4113H58.8653V58.8652ZM65.9575 58.8652H69.5036V62.4113H65.9575V58.8652ZM73.0497 58.8652H76.5958V62.4113H73.0497V58.8652ZM80.1419 58.8652H83.688V62.4113H80.1419V58.8652ZM83.688 58.8652H87.2341V62.4113H83.688V58.8652ZM90.7802 58.8652H94.3263V62.4113H90.7802V58.8652ZM5.67383 62.4113H9.21993V65.9574H5.67383V62.4113ZM16.3121 62.4113H19.8582V65.9574H16.3121V62.4113ZM19.8582 62.4113H23.4043V65.9574H19.8582V62.4113ZM23.4043 62.4113H26.9504V65.9574H23.4043V62.4113ZM26.9504 62.4113H30.4965V65.9574H26.9504V62.4113ZM34.0426 62.4113H37.5887V65.9574H34.0426V62.4113ZM37.5887 62.4113H41.1348V65.9574H37.5887V62.4113ZM41.1348 62.4113H44.6809V65.9574H41.1348V62.4113ZM44.6809 62.4113H48.227V65.9574H44.6809V62.4113ZM55.3192 62.4113H58.8653V65.9574H55.3192V62.4113ZM62.4114 62.4113H65.9575V65.9574H62.4114V62.4113ZM65.9575 62.4113H69.5036V65.9574H65.9575V62.4113ZM69.5036 62.4113H73.0497V65.9574H69.5036V62.4113ZM73.0497 62.4113H76.5958V65.9574H73.0497V62.4113ZM76.5958 62.4113H80.1419V65.9574H76.5958V62.4113ZM83.688 62.4113H87.2341V65.9574H83.688V62.4113ZM34.0426 65.9574H37.5887V69.5035H34.0426V65.9574ZM44.6809 65.9574H48.227V69.5035H44.6809V65.9574ZM48.227 65.9574H51.7731V69.5035H48.227V65.9574ZM62.4114 65.9574H65.9575V69.5035H62.4114V65.9574ZM76.5958 65.9574H80.1419V69.5035H76.5958V65.9574ZM5.67383 69.5035H9.21993V73.0496H5.67383V69.5035ZM9.21993 69.5035H12.766V73.0496H9.21993V69.5035ZM12.766 69.5035H16.3121V73.0496H12.766V69.5035ZM16.3121 69.5035H19.8582V73.0496H16.3121V69.5035ZM19.8582 69.5035H23.4043V73.0496H19.8582V69.5035ZM23.4043 69.5035H26.9504V73.0496H23.4043V69.5035ZM26.9504 69.5035H30.4965V73.0496H26.9504V69.5035ZM34.0426 69.5035H37.5887V73.0496H34.0426V69.5035ZM37.5887 69.5035H41.1348V73.0496H37.5887V69.5035ZM41.1348 69.5035H44.6809V73.0496H41.1348V69.5035ZM44.6809 69.5035H48.227V73.0496H44.6809V69.5035ZM62.4114 69.5035H65.9575V73.0496H62.4114V69.5035ZM69.5036 69.5035H73.0497V73.0496H69.5036V69.5035ZM76.5958 69.5035H80.1419V73.0496H76.5958V69.5035ZM90.7802 69.5035H94.3263V73.0496H90.7802V69.5035ZM5.67383 73.0496H9.21993V76.5957H5.67383V73.0496ZM26.9504 73.0496H30.4965V76.5957H26.9504V73.0496ZM37.5887 73.0496H41.1348V76.5957H37.5887V73.0496ZM41.1348 73.0496H44.6809V76.5957H41.1348V73.0496ZM48.227 73.0496H51.7731V76.5957H48.227V73.0496ZM55.3192 73.0496H58.8653V76.5957H55.3192V73.0496ZM62.4114 73.0496H65.9575V76.5957H62.4114V73.0496ZM76.5958 73.0496H80.1419V76.5957H76.5958V73.0496ZM5.67383 76.5957H9.21993V80.1418H5.67383V76.5957ZM12.766 76.5957H16.3121V80.1418H12.766V76.5957ZM16.3121 76.5957H19.8582V80.1418H16.3121V76.5957ZM19.8582 76.5957H23.4043V80.1418H19.8582V76.5957ZM26.9504 76.5957H30.4965V80.1418H26.9504V76.5957ZM44.6809 76.5957H48.227V80.1418H44.6809V76.5957ZM48.227 76.5957H51.7731V80.1418H48.227V76.5957ZM55.3192 76.5957H58.8653V80.1418H55.3192V76.5957ZM58.8653 76.5957H62.4114V80.1418H58.8653V76.5957ZM62.4114 76.5957H65.9575V80.1418H62.4114V76.5957ZM65.9575 76.5957H69.5036V80.1418H65.9575V76.5957ZM69.5036 76.5957H73.0497V80.1418H69.5036V76.5957ZM73.0497 76.5957H76.5958V80.1418H73.0497V76.5957ZM76.5958 76.5957H80.1419V80.1418H76.5958V76.5957ZM83.688 76.5957H87.2341V80.1418H83.688V76.5957ZM90.7802 76.5957H94.3263V80.1418H90.7802V76.5957ZM5.67383 80.1418H9.21993V83.6879H5.67383V80.1418ZM12.766 80.1418H16.3121V83.6879H12.766V80.1418ZM16.3121 80.1418H19.8582V83.6879H16.3121V80.1418ZM19.8582 80.1418H23.4043V83.6879H19.8582V80.1418ZM26.9504 80.1418H30.4965V83.6879H26.9504V80.1418ZM37.5887 80.1418H41.1348V83.6879H37.5887V80.1418ZM48.227 80.1418H51.7731V83.6879H48.227V80.1418ZM51.7731 80.1418H55.3192V83.6879H51.7731V80.1418ZM58.8653 80.1418H62.4114V83.6879H58.8653V80.1418ZM62.4114 80.1418H65.9575V83.6879H62.4114V80.1418ZM65.9575 80.1418H69.5036V83.6879H65.9575V80.1418ZM69.5036 80.1418H73.0497V83.6879H69.5036V80.1418ZM87.2341 80.1418H90.7802V83.6879H87.2341V80.1418ZM90.7802 80.1418H94.3263V83.6879H90.7802V80.1418ZM5.67383 83.6879H9.21993V87.234H5.67383V83.6879ZM12.766 83.6879H16.3121V87.234H12.766V83.6879ZM16.3121 83.6879H19.8582V87.234H16.3121V83.6879ZM19.8582 83.6879H23.4043V87.234H19.8582V83.6879ZM26.9504 83.6879H30.4965V87.234H26.9504V83.6879ZM48.227 83.6879H51.7731V87.234H48.227V83.6879ZM51.7731 83.6879H55.3192V87.234H51.7731V83.6879ZM58.8653 83.6879H62.4114V87.234H58.8653V83.6879ZM80.1419 83.6879H83.688V87.234H80.1419V83.6879ZM83.688 83.6879H87.2341V87.234H83.688V83.6879ZM90.7802 83.6879H94.3263V87.234H90.7802V83.6879ZM5.67383 87.234H9.21993V90.7801H5.67383V87.234ZM26.9504 87.234H30.4965V90.7801H26.9504V87.234ZM34.0426 87.234H37.5887V90.7801H34.0426V87.234ZM37.5887 87.234H41.1348V90.7801H37.5887V87.234ZM41.1348 87.234H44.6809V90.7801H41.1348V87.234ZM44.6809 87.234H48.227V90.7801H44.6809V87.234ZM48.227 87.234H51.7731V90.7801H48.227V87.234ZM51.7731 87.234H55.3192V90.7801H51.7731V87.234ZM62.4114 87.234H65.9575V90.7801H62.4114V87.234ZM65.9575 87.234H69.5036V90.7801H65.9575V87.234ZM73.0497 87.234H76.5958V90.7801H73.0497V87.234ZM76.5958 87.234H80.1419V90.7801H76.5958V87.234ZM90.7802 87.234H94.3263V90.7801H90.7802V87.234ZM5.67383 90.7801H9.21993V94.3262H5.67383V90.7801ZM9.21993 90.7801H12.766V94.3262H9.21993V90.7801ZM12.766 90.7801H16.3121V94.3262H12.766V90.7801ZM16.3121 90.7801H19.8582V94.3262H16.3121V90.7801ZM19.8582 90.7801H23.4043V94.3262H19.8582V90.7801ZM23.4043 90.7801H26.9504V94.3262H23.4043V90.7801ZM26.9504 90.7801H30.4965V94.3262H26.9504V90.7801ZM41.1348 90.7801H44.6809V94.3262H41.1348V90.7801ZM48.227 90.7801H51.7731V94.3262H48.227V90.7801ZM51.7731 90.7801H55.3192V94.3262H51.7731V90.7801ZM62.4114 90.7801H65.9575V94.3262H62.4114V90.7801ZM69.5036 90.7801H73.0497V94.3262H69.5036V90.7801ZM80.1419 90.7801H83.688V94.3262H80.1419V90.7801ZM90.7802 90.7801H94.3263V94.3262H90.7802V90.7801Z" fill="black"/>
</svg>
